<mxfile host="app.diagrams.net" modified="2021-05-28T05:49:43.188Z" agent="5.0 (Windows NT 10.0; Win64; x64) AppleWebKit/537.36 (KHTML, like Gecko) Chrome/90.0.4430.212 Safari/537.36" etag="QrexLrSXwIttIFNWqRdP" version="14.1.9" type="github" pages="2">
  <diagram id="Cac-hUQVUq3Df50x9ENL" name="Page-1">
    <mxGraphModel dx="1422" dy="892" grid="1" gridSize="10" guides="1" tooltips="1" connect="1" arrows="1" fold="1" page="1" pageScale="1" pageWidth="827" pageHeight="1169" math="0" shadow="0">
      <root>
        <mxCell id="0" />
        <mxCell id="1" parent="0" />
        <mxCell id="xXE9XdrUVikF0zcDaUjN-1" value="孩子" style="rounded=1;whiteSpace=wrap;html=1;fontSize=16;fontColor=#000000;verticalAlign=top;fontStyle=1" vertex="1" parent="1">
          <mxGeometry x="208" y="30" width="120" height="230" as="geometry" />
        </mxCell>
        <mxCell id="xXE9XdrUVikF0zcDaUjN-2" value="个人" style="ellipse;whiteSpace=wrap;html=1;aspect=fixed;fontSize=16;fontColor=#000000;" vertex="1" parent="1">
          <mxGeometry x="228" y="74" width="80" height="80" as="geometry" />
        </mxCell>
        <mxCell id="xXE9XdrUVikF0zcDaUjN-3" value="组织" style="ellipse;whiteSpace=wrap;html=1;aspect=fixed;fontSize=16;fillColor=#dae8fc;strokeColor=#6c8ebf;fontColor=#000000;strokeWidth=2;" vertex="1" parent="1">
          <mxGeometry x="228" y="166" width="80" height="80" as="geometry" />
        </mxCell>
        <mxCell id="xXE9XdrUVikF0zcDaUjN-4" value="孩子&lt;br&gt;（未激活）" style="rounded=1;whiteSpace=wrap;html=1;fontSize=16;fontColor=#999999;verticalAlign=top;fontStyle=1" vertex="1" parent="1">
          <mxGeometry x="60" y="519" width="120" height="230" as="geometry" />
        </mxCell>
        <mxCell id="xXE9XdrUVikF0zcDaUjN-5" value="组织" style="ellipse;whiteSpace=wrap;html=1;aspect=fixed;fontSize=16;fillColor=#d5e8d4;strokeColor=#82b366;strokeWidth=1;" vertex="1" parent="1">
          <mxGeometry x="80" y="655" width="80" height="80" as="geometry" />
        </mxCell>
        <mxCell id="xXE9XdrUVikF0zcDaUjN-6" value="创建未激活成员" style="text;html=1;strokeColor=none;fillColor=none;align=center;verticalAlign=middle;whiteSpace=wrap;rounded=0;fontSize=16;fontColor=#000000;fontStyle=1" vertex="1" parent="1">
          <mxGeometry x="30" y="779" width="180" height="20" as="geometry" />
        </mxCell>
        <mxCell id="xXE9XdrUVikF0zcDaUjN-7" value="孩子&lt;br&gt;（未激活）" style="rounded=1;whiteSpace=wrap;html=1;fontSize=16;fontColor=#999999;verticalAlign=top;fontStyle=1" vertex="1" parent="1">
          <mxGeometry x="60" y="1090" width="120" height="230" as="geometry" />
        </mxCell>
        <mxCell id="xXE9XdrUVikF0zcDaUjN-8" value="组织" style="ellipse;whiteSpace=wrap;html=1;aspect=fixed;fontSize=16;fillColor=#e1d5e7;strokeColor=#9673a6;" vertex="1" parent="1">
          <mxGeometry x="80" y="1226" width="80" height="80" as="geometry" />
        </mxCell>
        <mxCell id="xXE9XdrUVikF0zcDaUjN-9" style="edgeStyle=none;rounded=0;orthogonalLoop=1;jettySize=auto;html=1;strokeColor=#999999;strokeWidth=2;fontSize=16;fontColor=#000000;entryX=1.009;entryY=0.131;entryDx=0;entryDy=0;entryPerimeter=0;" edge="1" parent="1" source="xXE9XdrUVikF0zcDaUjN-11" target="xXE9XdrUVikF0zcDaUjN-1">
          <mxGeometry relative="1" as="geometry" />
        </mxCell>
        <mxCell id="xXE9XdrUVikF0zcDaUjN-10" style="edgeStyle=none;rounded=0;orthogonalLoop=1;jettySize=auto;html=1;strokeColor=#999999;strokeWidth=2;fontSize=16;fontColor=#000000;" edge="1" parent="1" source="xXE9XdrUVikF0zcDaUjN-11" target="xXE9XdrUVikF0zcDaUjN-12">
          <mxGeometry relative="1" as="geometry" />
        </mxCell>
        <mxCell id="xXE9XdrUVikF0zcDaUjN-11" value="家庭" style="rounded=1;whiteSpace=wrap;html=1;fontSize=16;fontColor=#000000;align=center;" vertex="1" parent="1">
          <mxGeometry x="475" y="30" width="120" height="60" as="geometry" />
        </mxCell>
        <mxCell id="xXE9XdrUVikF0zcDaUjN-12" value="家长" style="rounded=1;whiteSpace=wrap;html=1;fontSize=16;fontColor=#000000;align=center;" vertex="1" parent="1">
          <mxGeometry x="475" y="155" width="120" height="105" as="geometry" />
        </mxCell>
        <mxCell id="xXE9XdrUVikF0zcDaUjN-13" value="去绑定（注册）" style="endArrow=classic;html=1;strokeColor=#999999;strokeWidth=2;fontSize=16;fontColor=#000000;" edge="1" parent="1">
          <mxGeometry width="50" height="50" relative="1" as="geometry">
            <mxPoint x="220" y="620" as="sourcePoint" />
            <mxPoint x="467" y="471" as="targetPoint" />
          </mxGeometry>
        </mxCell>
        <mxCell id="xXE9XdrUVikF0zcDaUjN-14" value="孩子" style="rounded=1;whiteSpace=wrap;html=1;fontSize=16;fontColor=#999999;verticalAlign=top;fontStyle=1" vertex="1" parent="1">
          <mxGeometry x="490" y="366" width="210" height="230" as="geometry" />
        </mxCell>
        <mxCell id="xXE9XdrUVikF0zcDaUjN-15" style="edgeStyle=orthogonalEdgeStyle;rounded=0;orthogonalLoop=1;jettySize=auto;html=1;strokeWidth=3;fontColor=#000000;fillColor=#d5e8d4;strokeColor=#82b366;" edge="1" parent="1" source="xXE9XdrUVikF0zcDaUjN-16" target="xXE9XdrUVikF0zcDaUjN-17">
          <mxGeometry relative="1" as="geometry" />
        </mxCell>
        <mxCell id="xXE9XdrUVikF0zcDaUjN-16" value="个人" style="ellipse;whiteSpace=wrap;html=1;aspect=fixed;fontSize=16;fontColor=#999999;" vertex="1" parent="1">
          <mxGeometry x="510" y="410" width="80" height="80" as="geometry" />
        </mxCell>
        <mxCell id="xXE9XdrUVikF0zcDaUjN-17" value="组织" style="ellipse;whiteSpace=wrap;html=1;aspect=fixed;fontSize=16;fillColor=#d5e8d4;strokeColor=#82b366;" vertex="1" parent="1">
          <mxGeometry x="603" y="504" width="80" height="80" as="geometry" />
        </mxCell>
        <mxCell id="xXE9XdrUVikF0zcDaUjN-18" value="孩子" style="rounded=1;whiteSpace=wrap;html=1;fontSize=16;fontColor=#999999;verticalAlign=top;fontStyle=1" vertex="1" parent="1">
          <mxGeometry x="490" y="670" width="213" height="230" as="geometry" />
        </mxCell>
        <mxCell id="xXE9XdrUVikF0zcDaUjN-19" style="edgeStyle=orthogonalEdgeStyle;rounded=0;orthogonalLoop=1;jettySize=auto;html=1;fillColor=#d5e8d4;strokeColor=#82b366;strokeWidth=3;" edge="1" parent="1" source="xXE9XdrUVikF0zcDaUjN-20" target="xXE9XdrUVikF0zcDaUjN-23">
          <mxGeometry relative="1" as="geometry" />
        </mxCell>
        <mxCell id="xXE9XdrUVikF0zcDaUjN-20" value="个人" style="ellipse;whiteSpace=wrap;html=1;aspect=fixed;fontSize=16;fontColor=#999999;" vertex="1" parent="1">
          <mxGeometry x="510" y="714" width="80" height="80" as="geometry" />
        </mxCell>
        <mxCell id="xXE9XdrUVikF0zcDaUjN-21" value="组织" style="ellipse;whiteSpace=wrap;html=1;aspect=fixed;fontSize=16;fillColor=#dae8fc;strokeColor=#6c8ebf;strokeWidth=2;" vertex="1" parent="1">
          <mxGeometry x="510" y="806" width="80" height="80" as="geometry" />
        </mxCell>
        <mxCell id="xXE9XdrUVikF0zcDaUjN-22" value="去绑定（登录）" style="endArrow=classic;html=1;strokeColor=#999999;strokeWidth=2;fontSize=16;fontColor=#000000;" edge="1" parent="1">
          <mxGeometry width="50" height="50" relative="1" as="geometry">
            <mxPoint x="220" y="640" as="sourcePoint" />
            <mxPoint x="460" y="790" as="targetPoint" />
          </mxGeometry>
        </mxCell>
        <mxCell id="xXE9XdrUVikF0zcDaUjN-23" value="组织" style="ellipse;whiteSpace=wrap;html=1;aspect=fixed;fontSize=16;fillColor=#d5e8d4;strokeColor=#82b366;" vertex="1" parent="1">
          <mxGeometry x="603" y="805" width="80" height="80" as="geometry" />
        </mxCell>
        <mxCell id="xXE9XdrUVikF0zcDaUjN-24" value="家长代理使用" style="endArrow=classic;html=1;strokeColor=#999999;strokeWidth=4;fontSize=16;fontColor=#000000;" edge="1" parent="1">
          <mxGeometry width="50" height="50" relative="1" as="geometry">
            <mxPoint x="120" y="840" as="sourcePoint" />
            <mxPoint x="120" y="1040" as="targetPoint" />
          </mxGeometry>
        </mxCell>
        <mxCell id="xXE9XdrUVikF0zcDaUjN-25" value="组织" style="ellipse;whiteSpace=wrap;html=1;aspect=fixed;fontSize=16;strokeWidth=2;" vertex="1" parent="1">
          <mxGeometry x="510" y="504" width="80" height="80" as="geometry" />
        </mxCell>
        <mxCell id="xXE9XdrUVikF0zcDaUjN-26" value="孩子" style="rounded=1;whiteSpace=wrap;html=1;fontSize=16;fontColor=#999999;verticalAlign=top;fontStyle=1" vertex="1" parent="1">
          <mxGeometry x="483.5" y="1086.5" width="210" height="230" as="geometry" />
        </mxCell>
        <mxCell id="xXE9XdrUVikF0zcDaUjN-27" style="edgeStyle=orthogonalEdgeStyle;rounded=0;orthogonalLoop=1;jettySize=auto;html=1;strokeWidth=3;fontColor=#000000;fillColor=#d5e8d4;strokeColor=#82b366;" edge="1" parent="1" source="xXE9XdrUVikF0zcDaUjN-28" target="xXE9XdrUVikF0zcDaUjN-29">
          <mxGeometry relative="1" as="geometry" />
        </mxCell>
        <mxCell id="xXE9XdrUVikF0zcDaUjN-28" value="个人" style="ellipse;whiteSpace=wrap;html=1;aspect=fixed;fontSize=16;fontColor=#999999;" vertex="1" parent="1">
          <mxGeometry x="503.5" y="1130.5" width="80" height="80" as="geometry" />
        </mxCell>
        <mxCell id="xXE9XdrUVikF0zcDaUjN-29" value="组织" style="ellipse;whiteSpace=wrap;html=1;aspect=fixed;fontSize=16;fillColor=#e1d5e7;strokeColor=#9673a6;" vertex="1" parent="1">
          <mxGeometry x="596.5" y="1224.5" width="80" height="80" as="geometry" />
        </mxCell>
        <mxCell id="xXE9XdrUVikF0zcDaUjN-30" value="孩子" style="rounded=1;whiteSpace=wrap;html=1;fontSize=16;fontColor=#999999;verticalAlign=top;fontStyle=1" vertex="1" parent="1">
          <mxGeometry x="483.5" y="1390.5" width="213" height="230" as="geometry" />
        </mxCell>
        <mxCell id="xXE9XdrUVikF0zcDaUjN-31" style="edgeStyle=orthogonalEdgeStyle;rounded=0;orthogonalLoop=1;jettySize=auto;html=1;fillColor=#d5e8d4;strokeColor=#82b366;strokeWidth=3;" edge="1" parent="1" source="xXE9XdrUVikF0zcDaUjN-32" target="xXE9XdrUVikF0zcDaUjN-34">
          <mxGeometry relative="1" as="geometry" />
        </mxCell>
        <mxCell id="xXE9XdrUVikF0zcDaUjN-32" value="个人" style="ellipse;whiteSpace=wrap;html=1;aspect=fixed;fontSize=16;fontColor=#999999;" vertex="1" parent="1">
          <mxGeometry x="503.5" y="1434.5" width="80" height="80" as="geometry" />
        </mxCell>
        <mxCell id="xXE9XdrUVikF0zcDaUjN-33" value="组织" style="ellipse;whiteSpace=wrap;html=1;aspect=fixed;fontSize=16;fillColor=#dae8fc;strokeColor=#6c8ebf;strokeWidth=2;" vertex="1" parent="1">
          <mxGeometry x="503.5" y="1526.5" width="80" height="80" as="geometry" />
        </mxCell>
        <mxCell id="xXE9XdrUVikF0zcDaUjN-34" value="组织" style="ellipse;whiteSpace=wrap;html=1;aspect=fixed;fontSize=16;fillColor=#e1d5e7;strokeColor=#9673a6;" vertex="1" parent="1">
          <mxGeometry x="596.5" y="1525.5" width="80" height="80" as="geometry" />
        </mxCell>
        <mxCell id="xXE9XdrUVikF0zcDaUjN-35" value="组织" style="ellipse;whiteSpace=wrap;html=1;aspect=fixed;fontSize=16;strokeWidth=2;" vertex="1" parent="1">
          <mxGeometry x="503.5" y="1224.5" width="80" height="80" as="geometry" />
        </mxCell>
        <mxCell id="xXE9XdrUVikF0zcDaUjN-36" value="去绑定（注册）" style="endArrow=classic;html=1;strokeColor=#999999;strokeWidth=2;fontSize=16;fontColor=#000000;" edge="1" parent="1">
          <mxGeometry width="50" height="50" relative="1" as="geometry">
            <mxPoint x="227" y="1210" as="sourcePoint" />
            <mxPoint x="450" y="1210" as="targetPoint" />
          </mxGeometry>
        </mxCell>
        <mxCell id="xXE9XdrUVikF0zcDaUjN-37" value="去绑定（登录）" style="endArrow=classic;html=1;strokeColor=#999999;strokeWidth=2;fontSize=16;fontColor=#000000;" edge="1" parent="1">
          <mxGeometry width="50" height="50" relative="1" as="geometry">
            <mxPoint x="227" y="1280" as="sourcePoint" />
            <mxPoint x="450" y="1460" as="targetPoint" />
          </mxGeometry>
        </mxCell>
        <mxCell id="xXE9XdrUVikF0zcDaUjN-38" value="绑定新家庭未激活账号" style="endArrow=classic;html=1;strokeColor=#999999;strokeWidth=2;fontSize=16;fontColor=#000000;" edge="1" parent="1">
          <mxGeometry width="50" height="50" relative="1" as="geometry">
            <mxPoint x="276" y="1884" as="sourcePoint" />
            <mxPoint x="507" y="1883" as="targetPoint" />
          </mxGeometry>
        </mxCell>
        <mxCell id="xXE9XdrUVikF0zcDaUjN-39" value="孩子" style="rounded=1;whiteSpace=wrap;html=1;fontSize=16;fontColor=#999999;verticalAlign=top;fontStyle=1" vertex="1" parent="1">
          <mxGeometry x="547" y="1770" width="310" height="230" as="geometry" />
        </mxCell>
        <mxCell id="xXE9XdrUVikF0zcDaUjN-40" style="edgeStyle=orthogonalEdgeStyle;rounded=0;orthogonalLoop=1;jettySize=auto;html=1;fillColor=#d5e8d4;strokeColor=#82b366;strokeWidth=3;" edge="1" parent="1" source="xXE9XdrUVikF0zcDaUjN-41" target="xXE9XdrUVikF0zcDaUjN-44">
          <mxGeometry relative="1" as="geometry">
            <Array as="points">
              <mxPoint x="797" y="1854" />
            </Array>
          </mxGeometry>
        </mxCell>
        <mxCell id="xXE9XdrUVikF0zcDaUjN-41" value="个人" style="ellipse;whiteSpace=wrap;html=1;aspect=fixed;fontSize=16;fontColor=#999999;" vertex="1" parent="1">
          <mxGeometry x="567" y="1814" width="80" height="80" as="geometry" />
        </mxCell>
        <mxCell id="xXE9XdrUVikF0zcDaUjN-42" value="组织" style="ellipse;whiteSpace=wrap;html=1;aspect=fixed;fontSize=16;fillColor=#dae8fc;strokeColor=#6c8ebf;" vertex="1" parent="1">
          <mxGeometry x="567" y="1906" width="80" height="80" as="geometry" />
        </mxCell>
        <mxCell id="xXE9XdrUVikF0zcDaUjN-43" value="组织" style="ellipse;whiteSpace=wrap;html=1;aspect=fixed;fontSize=16;fillColor=#d5e8d4;strokeColor=#82b366;" vertex="1" parent="1">
          <mxGeometry x="660" y="1905" width="80" height="80" as="geometry" />
        </mxCell>
        <mxCell id="xXE9XdrUVikF0zcDaUjN-44" value="组织2" style="ellipse;whiteSpace=wrap;html=1;aspect=fixed;fontSize=16;fillColor=#d5e8d4;strokeColor=#82b366;" vertex="1" parent="1">
          <mxGeometry x="757" y="1906" width="80" height="80" as="geometry" />
        </mxCell>
        <mxCell id="xXE9XdrUVikF0zcDaUjN-45" value="孩子" style="rounded=1;whiteSpace=wrap;html=1;fontSize=16;fontColor=#999999;verticalAlign=top;fontStyle=1" vertex="1" parent="1">
          <mxGeometry x="37" y="1771" width="213" height="230" as="geometry" />
        </mxCell>
        <mxCell id="xXE9XdrUVikF0zcDaUjN-46" style="edgeStyle=orthogonalEdgeStyle;rounded=0;orthogonalLoop=1;jettySize=auto;html=1;fillColor=#d5e8d4;strokeColor=#82b366;strokeWidth=3;" edge="1" parent="1" source="xXE9XdrUVikF0zcDaUjN-47" target="xXE9XdrUVikF0zcDaUjN-49">
          <mxGeometry relative="1" as="geometry" />
        </mxCell>
        <mxCell id="xXE9XdrUVikF0zcDaUjN-47" value="个人" style="ellipse;whiteSpace=wrap;html=1;aspect=fixed;fontSize=16;fontColor=#999999;" vertex="1" parent="1">
          <mxGeometry x="57" y="1815" width="80" height="80" as="geometry" />
        </mxCell>
        <mxCell id="xXE9XdrUVikF0zcDaUjN-48" value="组织" style="ellipse;whiteSpace=wrap;html=1;aspect=fixed;fontSize=16;fillColor=#dae8fc;strokeColor=#6c8ebf;" vertex="1" parent="1">
          <mxGeometry x="57" y="1907" width="80" height="80" as="geometry" />
        </mxCell>
        <mxCell id="xXE9XdrUVikF0zcDaUjN-49" value="组织" style="ellipse;whiteSpace=wrap;html=1;aspect=fixed;fontSize=16;fillColor=#d5e8d4;strokeColor=#82b366;" vertex="1" parent="1">
          <mxGeometry x="150" y="1906" width="80" height="80" as="geometry" />
        </mxCell>
        <mxCell id="xXE9XdrUVikF0zcDaUjN-50" value="" style="shape=umlDestroy;whiteSpace=wrap;html=1;strokeWidth=3;align=center;fillColor=#f8cecc;strokeColor=#b85450;" vertex="1" parent="1">
          <mxGeometry x="720" y="1822.5" width="61" height="61" as="geometry" />
        </mxCell>
      </root>
    </mxGraphModel>
  </diagram>
  <diagram id="ceH8nuRsR9pP0ZFEwfBS" name="Page-2">
    <mxGraphModel dx="1422" dy="892" grid="1" gridSize="10" guides="1" tooltips="1" connect="1" arrows="1" fold="1" page="1" pageScale="1" pageWidth="827" pageHeight="1169" math="0" shadow="0">
      <root>
        <mxCell id="WKbESovCnMBGhhpLqmb3-0" />
        <mxCell id="WKbESovCnMBGhhpLqmb3-1" parent="WKbESovCnMBGhhpLqmb3-0" />
        <mxCell id="WKbESovCnMBGhhpLqmb3-2" value="孩子" style="rounded=1;whiteSpace=wrap;html=1;fontSize=16;fontColor=#000000;verticalAlign=top;fontStyle=1" vertex="1" parent="WKbESovCnMBGhhpLqmb3-1">
          <mxGeometry x="180" y="40" width="120" height="230" as="geometry" />
        </mxCell>
        <mxCell id="WKbESovCnMBGhhpLqmb3-3" value="个人" style="ellipse;whiteSpace=wrap;html=1;aspect=fixed;fontSize=16;fontColor=#000000;" vertex="1" parent="WKbESovCnMBGhhpLqmb3-1">
          <mxGeometry x="200" y="84" width="80" height="80" as="geometry" />
        </mxCell>
        <mxCell id="WKbESovCnMBGhhpLqmb3-4" value="组织" style="ellipse;whiteSpace=wrap;html=1;aspect=fixed;fontSize=16;fillColor=#dae8fc;strokeColor=#6c8ebf;fontColor=#000000;" vertex="1" parent="WKbESovCnMBGhhpLqmb3-1">
          <mxGeometry x="200" y="176" width="80" height="80" as="geometry" />
        </mxCell>
        <mxCell id="WKbESovCnMBGhhpLqmb3-5" value="孩子&lt;br&gt;（未激活）" style="rounded=1;whiteSpace=wrap;html=1;fontSize=16;fontColor=#999999;verticalAlign=top;fontStyle=1" vertex="1" parent="WKbESovCnMBGhhpLqmb3-1">
          <mxGeometry x="70" y="584" width="120" height="230" as="geometry" />
        </mxCell>
        <mxCell id="WKbESovCnMBGhhpLqmb3-6" value="组织" style="ellipse;whiteSpace=wrap;html=1;aspect=fixed;fontSize=16;fillColor=#d5e8d4;strokeColor=#82b366;" vertex="1" parent="WKbESovCnMBGhhpLqmb3-1">
          <mxGeometry x="90" y="720" width="80" height="80" as="geometry" />
        </mxCell>
        <mxCell id="WKbESovCnMBGhhpLqmb3-7" value="创建未激活成员" style="text;html=1;strokeColor=none;fillColor=none;align=center;verticalAlign=middle;whiteSpace=wrap;rounded=0;fontSize=16;fontColor=#000000;fontStyle=1" vertex="1" parent="WKbESovCnMBGhhpLqmb3-1">
          <mxGeometry x="40" y="844" width="180" height="20" as="geometry" />
        </mxCell>
        <mxCell id="WKbESovCnMBGhhpLqmb3-8" value="孩子&lt;br&gt;（未激活）" style="rounded=1;whiteSpace=wrap;html=1;fontSize=16;fontColor=#999999;verticalAlign=top;fontStyle=1" vertex="1" parent="WKbESovCnMBGhhpLqmb3-1">
          <mxGeometry x="70" y="1155" width="120" height="230" as="geometry" />
        </mxCell>
        <mxCell id="WKbESovCnMBGhhpLqmb3-9" value="组织" style="ellipse;whiteSpace=wrap;html=1;aspect=fixed;fontSize=16;fillColor=#e1d5e7;strokeColor=#9673a6;" vertex="1" parent="WKbESovCnMBGhhpLqmb3-1">
          <mxGeometry x="90" y="1291" width="80" height="80" as="geometry" />
        </mxCell>
        <mxCell id="WKbESovCnMBGhhpLqmb3-10" style="edgeStyle=none;rounded=0;orthogonalLoop=1;jettySize=auto;html=1;strokeColor=#999999;strokeWidth=2;fontSize=16;fontColor=#000000;entryX=1.009;entryY=0.131;entryDx=0;entryDy=0;entryPerimeter=0;" edge="1" parent="WKbESovCnMBGhhpLqmb3-1" source="WKbESovCnMBGhhpLqmb3-12" target="WKbESovCnMBGhhpLqmb3-2">
          <mxGeometry relative="1" as="geometry" />
        </mxCell>
        <mxCell id="WKbESovCnMBGhhpLqmb3-11" style="edgeStyle=none;rounded=0;orthogonalLoop=1;jettySize=auto;html=1;strokeColor=#999999;strokeWidth=2;fontSize=16;fontColor=#000000;" edge="1" parent="WKbESovCnMBGhhpLqmb3-1" source="WKbESovCnMBGhhpLqmb3-12" target="WKbESovCnMBGhhpLqmb3-13">
          <mxGeometry relative="1" as="geometry" />
        </mxCell>
        <mxCell id="WKbESovCnMBGhhpLqmb3-12" value="家庭" style="rounded=1;whiteSpace=wrap;html=1;fontSize=16;fontColor=#000000;align=center;" vertex="1" parent="WKbESovCnMBGhhpLqmb3-1">
          <mxGeometry x="447" y="40" width="120" height="60" as="geometry" />
        </mxCell>
        <mxCell id="WKbESovCnMBGhhpLqmb3-13" value="家长" style="rounded=1;whiteSpace=wrap;html=1;fontSize=16;fontColor=#000000;align=center;" vertex="1" parent="WKbESovCnMBGhhpLqmb3-1">
          <mxGeometry x="447" y="165" width="120" height="105" as="geometry" />
        </mxCell>
        <mxCell id="WKbESovCnMBGhhpLqmb3-14" value="去绑定（注册）" style="endArrow=classic;html=1;strokeColor=#999999;strokeWidth=2;fontSize=16;fontColor=#000000;" edge="1" parent="WKbESovCnMBGhhpLqmb3-1">
          <mxGeometry width="50" height="50" relative="1" as="geometry">
            <mxPoint x="230" y="630" as="sourcePoint" />
            <mxPoint x="477" y="536" as="targetPoint" />
          </mxGeometry>
        </mxCell>
        <mxCell id="WKbESovCnMBGhhpLqmb3-15" value="孩子" style="rounded=1;whiteSpace=wrap;html=1;fontSize=16;fontColor=#999999;verticalAlign=top;fontStyle=1" vertex="1" parent="WKbESovCnMBGhhpLqmb3-1">
          <mxGeometry x="500" y="431" width="210" height="230" as="geometry" />
        </mxCell>
        <mxCell id="WKbESovCnMBGhhpLqmb3-16" value="个人" style="ellipse;whiteSpace=wrap;html=1;aspect=fixed;fontSize=16;fontColor=#999999;" vertex="1" parent="WKbESovCnMBGhhpLqmb3-1">
          <mxGeometry x="520" y="475" width="80" height="80" as="geometry" />
        </mxCell>
        <mxCell id="WKbESovCnMBGhhpLqmb3-17" value="组织" style="ellipse;whiteSpace=wrap;html=1;aspect=fixed;fontSize=16;fillColor=#d5e8d4;strokeColor=#82b366;" vertex="1" parent="WKbESovCnMBGhhpLqmb3-1">
          <mxGeometry x="613" y="569" width="80" height="80" as="geometry" />
        </mxCell>
        <mxCell id="WKbESovCnMBGhhpLqmb3-18" value="孩子" style="rounded=1;whiteSpace=wrap;html=1;fontSize=16;fontColor=#999999;verticalAlign=top;fontStyle=1" vertex="1" parent="WKbESovCnMBGhhpLqmb3-1">
          <mxGeometry x="500" y="735" width="213" height="230" as="geometry" />
        </mxCell>
        <mxCell id="WKbESovCnMBGhhpLqmb3-19" value="个人" style="ellipse;whiteSpace=wrap;html=1;aspect=fixed;fontSize=16;fontColor=#999999;" vertex="1" parent="WKbESovCnMBGhhpLqmb3-1">
          <mxGeometry x="520" y="779" width="80" height="80" as="geometry" />
        </mxCell>
        <mxCell id="WKbESovCnMBGhhpLqmb3-20" value="组织" style="ellipse;whiteSpace=wrap;html=1;aspect=fixed;fontSize=16;fillColor=#dae8fc;strokeColor=#6c8ebf;strokeWidth=2;fontStyle=1" vertex="1" parent="WKbESovCnMBGhhpLqmb3-1">
          <mxGeometry x="520" y="871" width="80" height="80" as="geometry" />
        </mxCell>
        <mxCell id="WKbESovCnMBGhhpLqmb3-21" value="去绑定（登录）" style="endArrow=classic;html=1;strokeColor=#999999;strokeWidth=2;fontSize=16;fontColor=#000000;" edge="1" parent="WKbESovCnMBGhhpLqmb3-1">
          <mxGeometry width="50" height="50" relative="1" as="geometry">
            <mxPoint x="230" y="720" as="sourcePoint" />
            <mxPoint x="470" y="855" as="targetPoint" />
          </mxGeometry>
        </mxCell>
        <mxCell id="WKbESovCnMBGhhpLqmb3-22" value="组织" style="ellipse;whiteSpace=wrap;html=1;aspect=fixed;fontSize=16;fillColor=#d5e8d4;strokeColor=#82b366;" vertex="1" parent="WKbESovCnMBGhhpLqmb3-1">
          <mxGeometry x="613" y="870" width="80" height="80" as="geometry" />
        </mxCell>
        <mxCell id="WKbESovCnMBGhhpLqmb3-23" value="家长代理使用" style="endArrow=classic;html=1;strokeColor=#999999;strokeWidth=4;fontSize=16;fontColor=#000000;" edge="1" parent="WKbESovCnMBGhhpLqmb3-1">
          <mxGeometry width="50" height="50" relative="1" as="geometry">
            <mxPoint x="130" y="905" as="sourcePoint" />
            <mxPoint x="130" y="1105" as="targetPoint" />
          </mxGeometry>
        </mxCell>
        <mxCell id="WKbESovCnMBGhhpLqmb3-24" value="组织" style="ellipse;whiteSpace=wrap;html=1;aspect=fixed;fontSize=16;strokeWidth=2;fontStyle=1" vertex="1" parent="WKbESovCnMBGhhpLqmb3-1">
          <mxGeometry x="520" y="569" width="80" height="80" as="geometry" />
        </mxCell>
        <mxCell id="WKbESovCnMBGhhpLqmb3-25" value="孩子" style="rounded=1;whiteSpace=wrap;html=1;fontSize=16;fontColor=#999999;verticalAlign=top;fontStyle=1" vertex="1" parent="WKbESovCnMBGhhpLqmb3-1">
          <mxGeometry x="493.5" y="1151.5" width="210" height="230" as="geometry" />
        </mxCell>
        <mxCell id="WKbESovCnMBGhhpLqmb3-26" value="个人" style="ellipse;whiteSpace=wrap;html=1;aspect=fixed;fontSize=16;fontColor=#999999;" vertex="1" parent="WKbESovCnMBGhhpLqmb3-1">
          <mxGeometry x="513.5" y="1195.5" width="80" height="80" as="geometry" />
        </mxCell>
        <mxCell id="WKbESovCnMBGhhpLqmb3-27" value="组织" style="ellipse;whiteSpace=wrap;html=1;aspect=fixed;fontSize=16;fillColor=#e1d5e7;strokeColor=#9673a6;" vertex="1" parent="WKbESovCnMBGhhpLqmb3-1">
          <mxGeometry x="606.5" y="1289.5" width="80" height="80" as="geometry" />
        </mxCell>
        <mxCell id="WKbESovCnMBGhhpLqmb3-28" value="孩子" style="rounded=1;whiteSpace=wrap;html=1;fontSize=16;fontColor=#999999;verticalAlign=top;fontStyle=1" vertex="1" parent="WKbESovCnMBGhhpLqmb3-1">
          <mxGeometry x="493.5" y="1455.5" width="213" height="230" as="geometry" />
        </mxCell>
        <mxCell id="WKbESovCnMBGhhpLqmb3-29" value="个人" style="ellipse;whiteSpace=wrap;html=1;aspect=fixed;fontSize=16;fontColor=#999999;" vertex="1" parent="WKbESovCnMBGhhpLqmb3-1">
          <mxGeometry x="513.5" y="1499.5" width="80" height="80" as="geometry" />
        </mxCell>
        <mxCell id="WKbESovCnMBGhhpLqmb3-30" value="组织" style="ellipse;whiteSpace=wrap;html=1;aspect=fixed;fontSize=16;fillColor=#dae8fc;strokeColor=#6c8ebf;strokeWidth=2;fontStyle=1" vertex="1" parent="WKbESovCnMBGhhpLqmb3-1">
          <mxGeometry x="513.5" y="1591.5" width="80" height="80" as="geometry" />
        </mxCell>
        <mxCell id="WKbESovCnMBGhhpLqmb3-31" value="组织" style="ellipse;whiteSpace=wrap;html=1;aspect=fixed;fontSize=16;fillColor=#e1d5e7;strokeColor=#9673a6;" vertex="1" parent="WKbESovCnMBGhhpLqmb3-1">
          <mxGeometry x="606.5" y="1590.5" width="80" height="80" as="geometry" />
        </mxCell>
        <mxCell id="WKbESovCnMBGhhpLqmb3-32" value="组织" style="ellipse;whiteSpace=wrap;html=1;aspect=fixed;fontSize=16;strokeWidth=2;fontStyle=1" vertex="1" parent="WKbESovCnMBGhhpLqmb3-1">
          <mxGeometry x="513.5" y="1289.5" width="80" height="80" as="geometry" />
        </mxCell>
        <mxCell id="WKbESovCnMBGhhpLqmb3-33" value="去绑定（注册）" style="endArrow=classic;html=1;strokeColor=#999999;strokeWidth=2;fontSize=16;fontColor=#000000;" edge="1" parent="WKbESovCnMBGhhpLqmb3-1">
          <mxGeometry width="50" height="50" relative="1" as="geometry">
            <mxPoint x="237" y="1275" as="sourcePoint" />
            <mxPoint x="460" y="1275" as="targetPoint" />
          </mxGeometry>
        </mxCell>
        <mxCell id="WKbESovCnMBGhhpLqmb3-34" value="去绑定（登录）" style="endArrow=classic;html=1;strokeColor=#999999;strokeWidth=2;fontSize=16;fontColor=#000000;" edge="1" parent="WKbESovCnMBGhhpLqmb3-1">
          <mxGeometry width="50" height="50" relative="1" as="geometry">
            <mxPoint x="237" y="1345" as="sourcePoint" />
            <mxPoint x="460" y="1525" as="targetPoint" />
          </mxGeometry>
        </mxCell>
        <mxCell id="WKbESovCnMBGhhpLqmb3-35" value="绑定新家庭未激活账号" style="endArrow=classic;html=1;strokeColor=#999999;strokeWidth=2;fontSize=16;fontColor=#000000;" edge="1" parent="WKbESovCnMBGhhpLqmb3-1">
          <mxGeometry width="50" height="50" relative="1" as="geometry">
            <mxPoint x="230" y="1915.4999999999995" as="sourcePoint" />
            <mxPoint x="460.99999999999955" y="1914.5" as="targetPoint" />
          </mxGeometry>
        </mxCell>
        <mxCell id="WKbESovCnMBGhhpLqmb3-36" value="孩子" style="rounded=1;whiteSpace=wrap;html=1;fontSize=16;fontColor=#999999;verticalAlign=top;fontStyle=1" vertex="1" parent="WKbESovCnMBGhhpLqmb3-1">
          <mxGeometry x="490" y="1800" width="210" height="230" as="geometry" />
        </mxCell>
        <mxCell id="WKbESovCnMBGhhpLqmb3-37" value="个人" style="ellipse;whiteSpace=wrap;html=1;aspect=fixed;fontSize=16;fontColor=#999999;" vertex="1" parent="WKbESovCnMBGhhpLqmb3-1">
          <mxGeometry x="510" y="1844" width="80" height="80" as="geometry" />
        </mxCell>
        <mxCell id="WKbESovCnMBGhhpLqmb3-38" value="组织" style="ellipse;whiteSpace=wrap;html=1;aspect=fixed;fontSize=16;fillColor=#dae8fc;strokeColor=#6c8ebf;" vertex="1" parent="WKbESovCnMBGhhpLqmb3-1">
          <mxGeometry x="510" y="1936" width="80" height="80" as="geometry" />
        </mxCell>
        <mxCell id="WKbESovCnMBGhhpLqmb3-39" value="组织" style="ellipse;whiteSpace=wrap;html=1;aspect=fixed;fontSize=16;fillColor=#d5e8d4;strokeColor=#82b366;" vertex="1" parent="WKbESovCnMBGhhpLqmb3-1">
          <mxGeometry x="603" y="1935" width="80" height="80" as="geometry" />
        </mxCell>
        <mxCell id="WKbESovCnMBGhhpLqmb3-40" value="孩子" style="rounded=1;whiteSpace=wrap;html=1;fontSize=16;fontColor=#999999;verticalAlign=top;fontStyle=1" vertex="1" parent="WKbESovCnMBGhhpLqmb3-1">
          <mxGeometry x="70" y="1800" width="120" height="230" as="geometry" />
        </mxCell>
        <mxCell id="WKbESovCnMBGhhpLqmb3-41" value="个人" style="ellipse;whiteSpace=wrap;html=1;aspect=fixed;fontSize=16;fontColor=#999999;" vertex="1" parent="WKbESovCnMBGhhpLqmb3-1">
          <mxGeometry x="90" y="1844" width="80" height="80" as="geometry" />
        </mxCell>
        <mxCell id="WKbESovCnMBGhhpLqmb3-42" value="组织" style="ellipse;whiteSpace=wrap;html=1;aspect=fixed;fontSize=16;fillColor=#dae8fc;strokeColor=#6c8ebf;" vertex="1" parent="WKbESovCnMBGhhpLqmb3-1">
          <mxGeometry x="90" y="1936" width="80" height="80" as="geometry" />
        </mxCell>
        <mxCell id="WKbESovCnMBGhhpLqmb3-43" value="" style="shape=umlDestroy;whiteSpace=wrap;html=1;strokeWidth=3;align=center;fillColor=#f8cecc;strokeColor=#b85450;" vertex="1" parent="WKbESovCnMBGhhpLqmb3-1">
          <mxGeometry x="612.5" y="1944.5" width="61" height="61" as="geometry" />
        </mxCell>
        <mxCell id="WKbESovCnMBGhhpLqmb3-44" value="" style="shape=umlDestroy;whiteSpace=wrap;html=1;strokeWidth=3;align=center;fillColor=#f8cecc;strokeColor=#b85450;" vertex="1" parent="WKbESovCnMBGhhpLqmb3-1">
          <mxGeometry x="616" y="1299" width="61" height="61" as="geometry" />
        </mxCell>
        <mxCell id="WKbESovCnMBGhhpLqmb3-45" value="" style="shape=umlDestroy;whiteSpace=wrap;html=1;strokeWidth=3;align=center;fillColor=#f8cecc;strokeColor=#b85450;" vertex="1" parent="WKbESovCnMBGhhpLqmb3-1">
          <mxGeometry x="616" y="1601" width="61" height="61" as="geometry" />
        </mxCell>
        <mxCell id="WKbESovCnMBGhhpLqmb3-46" value="" style="shape=umlDestroy;whiteSpace=wrap;html=1;strokeWidth=3;align=center;fillColor=#f8cecc;strokeColor=#b85450;" vertex="1" parent="WKbESovCnMBGhhpLqmb3-1">
          <mxGeometry x="622.5" y="880.5" width="61" height="61" as="geometry" />
        </mxCell>
        <mxCell id="WKbESovCnMBGhhpLqmb3-47" value="" style="shape=umlDestroy;whiteSpace=wrap;html=1;strokeWidth=3;align=center;fillColor=#f8cecc;strokeColor=#b85450;" vertex="1" parent="WKbESovCnMBGhhpLqmb3-1">
          <mxGeometry x="622.5" y="578.5" width="61" height="61" as="geometry" />
        </mxCell>
      </root>
    </mxGraphModel>
  </diagram>
</mxfile>
